name rise35.5848peak51.9257fall54.8793.mot
datacolumns 19
datarows 17
range 19.84492200000000 19.87158800000000
endheader
time	ground_force1_vx	ground_force1_vy	ground_force1_vz	ground_force1_px	ground_force1_py	ground_force1_pz	ground_force2_vx	ground_force2_vy	ground_force2_vz	ground_force2_px	ground_force2_py	ground_force2_pz	ground_torque1_x	ground_torque1_y	ground_torque1_z	ground_torque2_x	ground_torque2_y	ground_torque2_z	
19.84492200000000	-2.31586200000000	45.05536000000000	-13.28503900000000	0.29446800000000	0.00000000000000	0.07268600000000	-61.58098900000000	818.73415299999999	-65.72985100000000	0.07151600000000	0.00000000000000	-0.11965200000000	0.00000000000000	-8.76311200000000	0.00000000000000	0.00000000000000	-22.10826900000000	0.00000000000000	
19.84658700000000	-2.38492600000000	51.58145300000000	-14.69767300000000	0.29839200000000	0.00000000000000	0.07380400000000	-62.16709700000000	816.12635000000000	-65.37739200000000	0.07087500000000	0.00000000000000	-0.11955700000000	0.00000000000000	-9.76259700000000	0.00000000000000	0.00000000000000	-22.11560100000000	0.00000000000000	
19.84825500000000	-2.37906700000000	58.06466900000000	-15.96360700000000	0.30199900000000	0.00000000000000	0.07484600000000	-62.76768900000000	813.36621200000002	-64.99634300000000	0.07023700000000	0.00000000000000	-0.11945700000000	0.00000000000000	-10.67497400000000	0.00000000000000	0.00000000000000	-22.12565500000000	0.00000000000000	
19.84991700000000	-2.29284900000000	64.44120500000000	-17.06196100000000	0.30533200000000	0.00000000000000	0.07582100000000	-63.38244200000000	810.45176300000003	-64.58644099999999	0.06960300000000	0.00000000000000	-0.11935000000000	0.00000000000000	-11.48494600000000	0.00000000000000	0.00000000000000	-22.13840100000000	0.00000000000000	
19.85158400000000	-2.12363000000000	70.67151699999999	-17.98202700000000	0.30842600000000	0.00000000000000	0.07673900000000	-64.01092300000001	807.38105599999994	-64.14745900000000	0.06897100000000	0.00000000000000	-0.11923800000000	0.00000000000000	-12.18404700000000	0.00000000000000	0.00000000000000	-22.15378100000000	0.00000000000000	
19.85325500000000	-1.87130700000000	76.73986200000000	-18.72259400000000	0.31130800000000	0.00000000000000	0.07760600000000	-64.65258400000000	804.15217099999995	-63.67921000000000	0.06834300000000	0.00000000000000	-0.11912000000000	0.00000000000000	-12.77030200000000	0.00000000000000	0.00000000000000	-22.17171100000000	0.00000000000000	
19.85492400000000	-1.53790900000000	82.65195500000000	-19.29062400000000	0.31400400000000	0.00000000000000	0.07842900000000	-65.30676600000000	800.76322400000004	-63.18154700000000	0.06771900000000	0.00000000000000	-0.11899600000000	0.00000000000000	-13.24741500000000	0.00000000000000	0.00000000000000	-22.19208100000000	0.00000000000000	
19.85658400000000	-1.12709400000000	88.43127400000000	-19.69947200000000	0.31653100000000	0.00000000000000	0.07921100000000	-65.97269100000000	797.21236799999997	-62.65437000000000	0.06709800000000	0.00000000000000	-0.11886600000000	0.00000000000000	-13.62362000000000	0.00000000000000	0.00000000000000	-22.21475400000000	0.00000000000000	
19.85826300000000	-0.64360600000000	94.11453800000000	-19.96690100000000	0.31890700000000	0.00000000000000	0.07995700000000	-66.64946600000000	793.49779999999998	-62.09761900000000	0.06648200000000	0.00000000000000	-0.11873000000000	0.00000000000000	-13.91035800000000	0.00000000000000	0.00000000000000	-22.23956100000000	0.00000000000000	
19.85991900000000	-0.09274400000000	99.74689100000001	-20.11307700000000	0.32114600000000	0.00000000000000	0.08067100000000	-67.33607800000000	789.61776699999996	-61.51128700000000	0.06586900000000	0.00000000000000	-0.11858800000000	0.00000000000000	-14.12092300000000	0.00000000000000	0.00000000000000	-22.26631100000000	0.00000000000000	
19.86158500000000	0.52011100000000	105.37722300000000	-20.15871300000000	0.32325800000000	0.00000000000000	0.08135500000000	-68.03139899999999	785.57057099999997	-60.89541200000000	0.06526000000000	0.00000000000000	-0.11843900000000	0.00000000000000	-14.26917700000000	0.00000000000000	0.00000000000000	-22.29478200000000	0.00000000000000	
19.86325300000000	1.18988800000000	111.05398900000000	-20.12349000000000	0.32525500000000	0.00000000000000	0.08201400000000	-68.73418300000000	781.35457499999995	-60.25008500000000	0.06465500000000	0.00000000000000	-0.11828400000000	0.00000000000000	-14.36844800000000	0.00000000000000	0.00000000000000	-22.32472400000000	0.00000000000000	
19.86491800000000	1.91211900000000	116.82175800000000	-20.02483200000000	0.32714400000000	0.00000000000000	0.08264800000000	-69.44306800000000	776.96821199999999	-59.57544900000000	0.06405500000000	0.00000000000000	-0.11812300000000	0.00000000000000	-14.43064800000000	0.00000000000000	0.00000000000000	-22.35586100000000	0.00000000000000	
19.86658900000000	2.68312400000000	122.71863700000000	-19.87705400000000	0.32893300000000	0.00000000000000	0.08326000000000	-70.15657899999999	772.40999099999999	-58.87170400000000	0.06345800000000	0.00000000000000	-0.11795600000000	0.00000000000000	-14.46565800000000	0.00000000000000	0.00000000000000	-22.38789000000000	0.00000000000000	
19.86825400000000	3.50010000000000	128.77461400000001	-19.69090600000000	0.33062700000000	0.00000000000000	0.08385200000000	-70.87312900000001	767.67850699999997	-58.13910600000000	0.06286600000000	0.00000000000000	-0.11778200000000	0.00000000000000	-14.48096800000000	0.00000000000000	0.00000000000000	-22.42048300000000	0.00000000000000	
19.86991900000000	4.36111600000000	135.01077000000001	-19.47345700000000	0.33223200000000	0.00000000000000	0.08442600000000	-71.59102300000001	762.77244599999995	-57.37796600000000	0.06227800000000	0.00000000000000	-0.11760200000000	0.00000000000000	-14.48156500000000	0.00000000000000	0.00000000000000	-22.45328600000000	0.00000000000000	
19.87158800000000	5.26503700000000	141.43927500000001	-19.22827400000000	0.33375200000000	0.00000000000000	0.08498200000000	-72.30846000000000	757.69060100000002	-56.58866000000000	0.06169500000000	0.00000000000000	-0.11741500000000	0.00000000000000	-14.47002300000000	0.00000000000000	0.00000000000000	-22.48592000000000	0.00000000000000	
